<!--?xml version="1.0" encoding="UTF-8" ?-->

<svg width="1794pt" height="338pt" viewBox="0 0 1794 338" xmlns="http://www.w3.org/2000/svg">
<g id="#b91d47ff">
<path fill="#ffffff" opacity="1.00" d=" M 5.09 0.00 L 259.87 0.00 C 262.10 1.80 264.66 3.94 264.88 7.02 C 265.20 11.01 264.96 15.01 265.00 19.00 C 265.00 82.67 265.00 146.33 265.00 210.00 C 265.10 223.89 261.19 238.33 251.96 248.98 C 229.95 273.25 207.32 296.98 183.88 319.88 C 177.16 326.79 169.23 332.96 159.83 335.62 C 154.70 337.19 149.29 336.93 143.99 336.94 C 103.33 336.88 62.66 337.06 22.00 337.00 C 17.34 336.93 12.67 337.24 8.02 336.83 C 4.65 336.54 2.22 333.89 0.00 331.63 L 0.00 5.01 C 1.44 3.10 3.16 1.41 5.09 0.00 M 20.47 20.48 C 20.68 84.65 20.32 148.83 20.38 213.00 C 20.32 247.20 20.70 281.40 20.46 315.60 C 60.31 315.62 100.17 315.56 140.02 315.62 C 142.56 315.51 145.35 316.07 147.61 314.60 C 151.12 312.58 154.64 310.33 157.06 307.02 C 160.06 302.99 161.34 298.04 162.45 293.23 C 165.61 279.38 164.58 265.08 164.52 251.00 C 164.64 247.37 163.90 243.43 165.82 240.13 C 167.16 237.21 170.00 235.05 173.26 234.87 C 187.79 233.92 202.51 234.85 216.89 232.14 C 223.31 230.80 229.74 228.85 235.31 225.33 C 241.47 221.09 243.14 213.04 243.33 206.02 C 243.33 170.68 243.33 135.34 243.33 100.00 C 243.18 73.51 243.63 47.00 243.10 20.52 C 168.89 20.48 94.68 20.57 20.47 20.48 Z" id="path-0" transform="translate(198.86188507080078,233.94647216796875) scale(0.9777777777777777) translate(-198.86188507080078,-233.94647216796875)" style="position: relative; fill: rgb(255, 255, 255);"></path>
<path fill="#ffffff" opacity="1.00" d=" M 1238.17 0.00 L 1286.31 0.00 C 1296.42 1.62 1306.53 3.53 1316.22 6.91 C 1346.09 16.93 1371.38 38.46 1387.95 65.05 C 1406.40 94.40 1413.52 129.66 1413.01 164.00 C 1413.24 202.04 1405.72 241.38 1384.51 273.56 C 1367.36 299.72 1341.41 320.18 1311.48 329.59 C 1289.84 336.53 1266.78 338.36 1244.18 336.76 C 1223.55 335.26 1202.99 330.11 1184.73 320.23 C 1158.68 306.31 1138.09 283.30 1125.07 256.97 C 1112.55 231.60 1107.40 203.15 1107.05 175.02 C 1106.64 143.84 1111.21 112.03 1124.54 83.60 C 1134.57 62.11 1149.53 42.80 1168.41 28.38 C 1181.69 18.23 1196.89 10.68 1212.92 5.97 C 1221.16 3.25 1229.85 2.39 1238.17 0.00 M 1245.44 20.63 C 1225.89 22.65 1206.78 29.35 1190.56 40.52 C 1176.30 50.38 1164.11 63.19 1154.71 77.75 C 1141.07 98.76 1133.83 123.45 1131.59 148.27 C 1129.30 174.42 1130.90 201.18 1138.44 226.43 C 1147.03 255.62 1165.54 282.32 1191.52 298.55 C 1210.99 310.78 1234.18 316.08 1257.00 316.21 C 1278.59 316.39 1300.54 312.65 1319.97 302.96 C 1346.02 290.09 1366.22 266.74 1376.89 239.87 C 1386.42 216.19 1389.76 190.40 1389.43 165.00 C 1389.48 141.45 1386.18 117.61 1377.50 95.62 C 1366.62 67.45 1345.07 43.09 1317.27 30.81 C 1294.85 20.89 1269.68 18.20 1245.44 20.63 Z" id="path-1" style="position: relative; fill: rgb(255, 255, 255);"></path>
<path fill="#ffffff" opacity="1.00" d=" M 1451.41 4.41 C 1502.47 4.44 1553.53 4.43 1604.59 4.41 C 1604.56 11.47 1604.56 18.53 1604.59 25.59 C 1561.15 25.62 1517.70 25.46 1474.27 25.67 C 1474.33 69.89 1474.33 114.11 1474.27 158.33 C 1514.57 158.53 1554.88 158.41 1595.19 158.39 C 1595.40 165.35 1595.30 172.31 1595.27 179.27 C 1554.95 179.36 1514.62 179.29 1474.30 179.30 C 1474.24 230.07 1474.45 280.84 1474.19 331.61 C 1466.60 331.54 1459.00 331.58 1451.41 331.59 C 1451.43 222.53 1451.43 113.47 1451.41 4.41 Z" id="path-2" style="position: relative; fill: rgb(255, 255, 255);"></path>
<path fill="#ffffff" opacity="1.00" d=" M 1640.42 4.42 C 1691.61 4.47 1742.80 4.35 1794.00 4.48 L 1794.00 25.45 C 1750.43 25.79 1706.85 25.38 1663.28 25.66 C 1663.33 69.89 1663.33 114.11 1663.28 158.34 C 1703.59 158.52 1743.90 158.41 1784.22 158.40 C 1784.36 165.35 1784.32 172.31 1784.27 179.27 C 1743.94 179.36 1703.62 179.29 1663.30 179.30 C 1663.26 230.07 1663.42 280.84 1663.22 331.60 C 1655.61 331.55 1648.01 331.57 1640.41 331.58 C 1640.43 222.53 1640.43 113.47 1640.42 4.42 Z" id="path-3" style="position: relative; fill: rgb(255, 255, 255);"></path>
<path fill="#ffffff" opacity="1.00" d=" M 493.40 5.47 C 503.16 1.66 516.19 8.04 517.22 18.95 C 518.77 28.08 512.11 37.62 502.99 39.22 C 492.62 41.74 481.46 32.73 481.96 22.03 C 481.32 14.64 486.55 7.80 493.40 5.47 Z" id="path-4" style="position: relative; fill: rgb(255, 255, 255);"></path>
<path fill="#ffffff" opacity="1.00" d=" M 388.22 37.24 C 395.28 34.66 402.48 32.52 409.60 30.13 C 409.56 52.76 409.55 75.38 409.61 98.00 C 430.07 98.00 450.53 98.00 471.00 98.00 C 470.98 104.54 471.06 111.09 470.94 117.63 C 450.49 117.52 430.05 117.57 409.61 117.61 C 409.53 169.40 409.60 221.20 409.57 273.00 C 409.78 283.78 410.71 295.18 416.32 304.67 C 420.78 312.22 429.62 315.88 438.07 316.48 C 449.64 317.79 461.00 313.71 470.98 308.18 C 470.95 314.96 471.16 321.74 470.84 328.52 C 461.68 332.40 452.08 335.81 442.02 335.99 C 429.49 336.41 416.18 333.92 406.30 325.72 C 396.07 317.32 391.21 304.18 389.36 291.42 C 387.75 281.35 388.26 271.15 388.19 261.00 C 388.18 213.21 388.21 165.41 388.18 117.61 C 374.19 117.55 360.21 117.56 346.22 117.61 C 346.16 111.08 346.22 104.55 346.17 98.03 C 360.17 97.96 374.18 98.03 388.18 97.99 C 388.23 77.74 388.15 57.49 388.22 37.24 Z" id="path-5" style="position: relative; fill: rgb(255, 255, 255);"></path>
<path fill="#ffffff" opacity="1.00" d=" M 32.03 31.04 C 45.61 31.03 59.19 30.99 72.77 31.06 C 72.71 44.69 72.71 58.31 72.76 71.94 C 59.19 72.01 45.61 71.97 32.03 71.96 C 32.03 58.32 32.02 44.68 32.03 31.04 Z" id="path-6" style="position: relative; fill: rgb(255, 255, 255);"></path>
<path fill="#ffffff" opacity="1.00" d=" M 86.08 31.04 C 99.64 31.03 113.20 30.99 126.76 31.06 C 126.71 44.69 126.71 58.31 126.76 71.94 C 113.20 72.01 99.64 71.97 86.08 71.96 C 86.11 58.32 86.11 44.68 86.08 31.04 Z" id="path-7" style="position: relative; fill: rgb(255, 255, 255);"></path>
<path fill="#ffffff" opacity="1.00" d=" M 140.08 31.04 C 153.64 31.03 167.20 30.99 180.77 31.06 C 180.71 44.69 180.71 58.31 180.76 71.94 C 167.20 72.01 153.64 71.97 140.08 71.96 C 140.11 58.32 140.11 44.68 140.08 31.04 Z" id="path-8" style="position: relative; fill: rgb(255, 255, 255);"></path>
<path fill="#ffffff" opacity="1.00" d=" M 194.08 31.04 C 207.71 31.02 221.34 31.02 234.97 31.04 C 234.97 44.68 234.97 58.32 234.97 71.96 C 221.34 71.98 207.71 71.98 194.08 71.96 C 194.11 58.32 194.11 44.68 194.08 31.04 Z" id="path-9" style="position: relative; fill: rgb(255, 255, 255);"></path>
<path fill="#ffffff" opacity="1.00" d=" M 32.02 90.00 C 45.60 90.01 59.19 89.96 72.78 90.03 C 72.70 103.34 72.70 116.66 72.78 129.97 C 59.19 130.04 45.61 129.98 32.02 130.00 C 32.03 116.67 32.03 103.33 32.02 90.00 Z" id="path-10" style="position: relative; fill: rgb(255, 255, 255);"></path>
<path fill="#ffffff" opacity="1.00" d=" M 86.06 90.00 C 99.63 90.02 113.21 89.96 126.78 90.03 C 126.70 103.34 126.70 116.66 126.78 129.97 C 113.21 130.04 99.63 129.98 86.06 130.00 C 86.12 116.67 86.12 103.33 86.06 90.00 Z" id="path-11" style="position: relative; fill: rgb(255, 255, 255);"></path>
<path fill="#ffffff" opacity="1.00" d=" M 140.06 90.00 C 153.63 90.02 167.21 89.96 180.78 90.03 C 180.70 103.34 180.70 116.66 180.78 129.97 C 167.21 130.04 153.63 129.98 140.06 130.00 C 140.12 116.67 140.12 103.33 140.06 90.00 Z" id="path-12" style="position: relative; fill: rgb(255, 255, 255);"></path>
<path fill="#ffffff" opacity="1.00" d=" M 194.06 90.00 C 207.70 90.00 221.34 90.00 234.98 90.00 C 234.97 103.33 234.96 116.66 234.98 130.00 C 221.34 130.00 207.70 130.00 194.06 130.00 C 194.12 116.67 194.12 103.33 194.06 90.00 Z" id="path-13" style="position: relative; fill: rgb(255, 255, 255);"></path>
<path fill="#ffffff" opacity="1.00" d=" M 607.21 104.23 C 623.92 93.20 645.06 90.04 664.58 93.49 C 682.67 96.59 698.80 108.04 708.65 123.38 C 712.95 129.88 715.86 137.15 718.25 144.54 C 726.01 127.77 737.90 112.50 754.09 103.18 C 768.86 94.10 786.71 90.77 803.86 92.61 C 819.45 93.88 835.17 99.40 846.48 110.53 C 859.29 123.00 865.61 140.57 868.37 157.90 C 871.25 175.12 870.48 192.62 870.57 210.00 C 870.58 250.53 870.56 291.06 870.59 331.58 C 863.46 331.58 856.34 331.55 849.22 331.61 C 849.15 283.41 849.23 235.21 849.18 187.02 C 848.87 173.62 847.82 160.08 844.01 147.17 C 841.26 137.99 836.61 129.05 829.03 122.95 C 818.19 114.07 803.65 111.48 789.99 111.81 C 775.11 112.14 760.78 118.86 750.34 129.33 C 739.40 139.75 731.50 153.29 727.81 167.94 C 725.37 177.08 724.41 186.56 724.57 196.00 C 724.59 241.19 724.55 286.39 724.59 331.59 C 717.46 331.57 710.34 331.54 703.23 331.61 C 703.13 282.75 703.26 233.89 703.16 185.03 C 702.55 166.92 699.96 147.81 689.38 132.59 C 681.40 120.90 667.83 113.92 653.94 112.38 C 639.35 110.38 623.76 113.02 611.61 121.64 C 598.41 130.81 588.92 144.73 583.74 159.83 C 579.15 173.02 577.77 187.11 578.00 201.00 C 577.96 244.55 578.08 288.09 577.94 331.63 C 570.89 331.53 563.85 331.56 556.81 331.61 C 556.55 253.74 556.74 175.87 556.72 98.00 C 563.81 98.00 570.90 98.00 578.00 98.00 C 578.07 111.07 577.85 124.14 578.11 137.21 C 585.46 124.43 594.68 112.32 607.21 104.23 Z" id="path-14" style="position: relative; fill: rgb(255, 255, 255);"></path>
<path fill="#ffffff" opacity="1.00" d=" M 945.65 107.70 C 959.60 98.32 976.19 93.34 992.90 92.38 C 1010.49 91.38 1028.82 93.89 1044.30 102.73 C 1059.02 110.96 1070.14 124.58 1077.28 139.69 C 1088.66 163.26 1090.81 190.01 1090.25 215.82 C 1032.70 215.80 975.15 215.79 917.59 215.82 C 917.48 237.08 920.82 258.97 931.13 277.82 C 938.99 292.36 951.40 304.71 966.73 311.22 C 984.40 318.77 1004.47 319.20 1023.08 315.25 C 1042.98 310.99 1061.06 300.87 1077.21 288.75 C 1077.39 295.18 1077.27 301.61 1077.33 308.04 C 1077.19 309.43 1077.67 311.29 1076.17 312.12 C 1050.58 330.57 1018.36 339.28 986.95 336.94 C 970.33 335.78 953.86 330.46 940.26 320.73 C 925.17 310.05 913.45 294.84 906.41 277.78 C 897.64 256.74 894.96 233.65 895.18 211.00 C 895.39 189.55 899.84 167.90 909.84 148.81 C 918.41 132.63 930.36 117.95 945.65 107.70 M 980.63 113.75 C 963.27 117.41 947.79 128.11 937.48 142.45 C 926.17 158.09 920.62 177.20 918.44 196.18 C 968.30 196.18 1018.16 196.23 1068.03 196.16 C 1067.22 181.08 1065.14 165.82 1059.13 151.85 C 1053.35 138.16 1043.57 125.68 1030.18 118.80 C 1015.02 111.02 997.07 110.26 980.63 113.75 Z" id="path-15" style="position: relative; fill: rgb(255, 255, 255);"></path>
<path fill="#ffffff" opacity="1.00" d=" M 489.00 98.00 C 496.10 98.00 503.19 98.00 510.28 98.00 C 510.26 175.87 510.44 253.74 510.19 331.61 C 503.15 331.56 496.11 331.53 489.06 331.63 C 488.92 253.75 489.04 175.88 489.00 98.00 Z" id="path-16" style="position: relative; fill: rgb(255, 255, 255);"></path>
<path fill="#ffffff" opacity="1.00" d=" M 32.03 146.04 C 45.61 146.03 59.19 145.99 72.77 146.06 C 72.70 159.69 72.73 173.31 72.76 186.94 C 59.18 187.01 45.61 186.96 32.03 186.97 C 32.02 173.32 32.03 159.68 32.03 146.04 Z" id="path-17" style="position: relative; fill: rgb(255, 255, 255);"></path>
<path fill="#ffffff" opacity="1.00" d=" M 86.07 146.05 C 99.64 146.01 113.21 146.00 126.77 146.06 C 126.70 159.69 126.73 173.31 126.76 186.94 C 113.20 187.01 99.65 186.97 86.09 186.96 C 86.09 173.32 86.13 159.69 86.07 146.05 Z" id="path-18" style="position: relative; fill: rgb(255, 255, 255);"></path>
<path fill="#ffffff" opacity="1.00" d=" M 140.07 146.05 C 153.64 146.01 167.21 146.00 180.77 146.06 C 180.70 159.69 180.72 173.31 180.76 186.94 C 167.20 187.01 153.65 186.97 140.09 186.96 C 140.09 173.32 140.13 159.69 140.07 146.05 Z" id="path-19" style="position: relative; fill: rgb(255, 255, 255);"></path>
<path fill="#ffffff" opacity="1.00" d=" M 194.07 146.05 C 207.70 146.00 221.34 146.03 234.97 146.04 C 234.97 159.68 234.98 173.32 234.97 186.97 C 221.34 186.97 207.72 186.99 194.09 186.96 C 194.09 173.32 194.13 159.69 194.07 146.05 Z" id="path-20" style="position: relative; fill: rgb(255, 255, 255);"></path>
<path fill="#ffffff" opacity="1.00" d=" M 32.03 203.03 C 45.61 203.04 59.19 202.99 72.76 203.06 C 72.72 216.69 72.71 230.31 72.77 243.94 C 59.19 244.01 45.61 243.97 32.03 243.96 C 32.03 230.32 32.02 216.68 32.03 203.03 Z" id="path-21" style="position: relative; fill: rgb(255, 255, 255);"></path>
<path fill="#ffffff" opacity="1.00" d=" M 86.09 203.04 C 99.71 203.01 113.34 203.03 126.97 203.03 C 126.98 216.68 126.97 230.32 126.97 243.96 C 113.34 243.97 99.70 244.00 86.07 243.94 C 86.12 230.31 86.10 216.67 86.09 203.04 Z" id="path-22" style="position: relative; fill: rgb(255, 255, 255);"></path>
<path fill="#ffffff" opacity="1.00" d=" M 32.02 259.01 C 45.67 258.99 59.33 258.99 72.98 259.01 C 72.97 272.34 72.96 285.67 72.98 299.00 C 59.33 299.00 45.67 299.00 32.02 299.00 C 32.04 285.67 32.03 272.34 32.02 259.01 Z" id="path-23" style="position: relative; fill: rgb(255, 255, 255);"></path>
</g>
</svg>
